<mxfile host="Electron" modified="2023-10-19T13:51:19.676Z" agent="Mozilla/5.0 (X11; Linux x86_64) AppleWebKit/537.36 (KHTML, like Gecko) draw.io/22.0.3 Chrome/114.0.5735.289 Electron/25.8.4 Safari/537.36" etag="yWn0kPdGft5Wzt6xR82v" version="22.0.3" type="device">
  <diagram name="Page-1" id="5a1yTcLH9ziOnhscmv-6">
    <mxGraphModel dx="3340" dy="1909" grid="1" gridSize="10" guides="1" tooltips="1" connect="1" arrows="1" fold="1" page="1" pageScale="1" pageWidth="850" pageHeight="1100" math="0" shadow="0">
      <root>
        <mxCell id="0" />
        <mxCell id="1" parent="0" />
        <mxCell id="EPjIcv4Y3wXbX12OfplG-1" value="your Host" style="whiteSpace=wrap;html=1;aspect=fixed;verticalAlign=top;fillColor=#647687;fontColor=#ffffff;strokeColor=#314354;" vertex="1" parent="1">
          <mxGeometry x="265" y="420" width="270" height="270" as="geometry" />
        </mxCell>
        <mxCell id="EPjIcv4Y3wXbX12OfplG-2" value="Spring Boot Azure/Noda Brige&lt;br&gt;API" style="rounded=0;whiteSpace=wrap;html=1;fillColor=#a20025;fontColor=#ffffff;strokeColor=#6F0000;fontStyle=1" vertex="1" parent="1">
          <mxGeometry x="305" y="470" width="200" height="170" as="geometry" />
        </mxCell>
        <mxCell id="EPjIcv4Y3wXbX12OfplG-4" value="VR HeadSet" style="shape=hexagon;perimeter=hexagonPerimeter2;whiteSpace=wrap;html=1;fixedSize=1;verticalAlign=top;fillColor=#008a00;fontColor=#ffffff;strokeColor=#005700;" vertex="1" parent="1">
          <mxGeometry x="560" y="150" width="240" height="160" as="geometry" />
        </mxCell>
        <mxCell id="EPjIcv4Y3wXbX12OfplG-5" value="Noda App" style="rounded=0;whiteSpace=wrap;html=1;verticalAlign=top;" vertex="1" parent="1">
          <mxGeometry x="590" y="190" width="180" height="100" as="geometry" />
        </mxCell>
        <mxCell id="EPjIcv4Y3wXbX12OfplG-6" value="Noda Browser running Bridge Code" style="shape=process;whiteSpace=wrap;html=1;backgroundOutline=1;fillColor=#fa6800;fontColor=#000000;strokeColor=#C73500;" vertex="1" parent="1">
          <mxGeometry x="620" y="220" width="120" height="60" as="geometry" />
        </mxCell>
        <mxCell id="EPjIcv4Y3wXbX12OfplG-8" value="Azure DevOps API Services" style="shape=process;whiteSpace=wrap;html=1;backgroundOutline=1;fillColor=#0000FF;fontColor=#ffffff;strokeColor=#006EAF;gradientColor=#66B2FF;" vertex="1" parent="1">
          <mxGeometry x="50" y="165" width="260" height="130" as="geometry" />
        </mxCell>
        <mxCell id="EPjIcv4Y3wXbX12OfplG-9" value="" style="shape=flexArrow;endArrow=classic;html=1;rounded=0;fillColor=#cdeb8b;strokeColor=#36393d;" edge="1" parent="1" target="EPjIcv4Y3wXbX12OfplG-2">
          <mxGeometry width="50" height="50" relative="1" as="geometry">
            <mxPoint x="200" y="320" as="sourcePoint" />
            <mxPoint x="450" y="940" as="targetPoint" />
          </mxGeometry>
        </mxCell>
        <mxCell id="EPjIcv4Y3wXbX12OfplG-10" value="" style="shape=flexArrow;endArrow=classic;startArrow=classic;html=1;rounded=0;entryX=0.25;entryY=1;entryDx=0;entryDy=0;exitX=0.75;exitY=0;exitDx=0;exitDy=0;fillColor=#cdeb8b;strokeColor=#36393d;" edge="1" parent="1" source="EPjIcv4Y3wXbX12OfplG-2" target="EPjIcv4Y3wXbX12OfplG-6">
          <mxGeometry width="100" height="100" relative="1" as="geometry">
            <mxPoint x="440" y="470" as="sourcePoint" />
            <mxPoint x="540" y="370" as="targetPoint" />
          </mxGeometry>
        </mxCell>
      </root>
    </mxGraphModel>
  </diagram>
</mxfile>
